<svg width="29" height="30" viewBox="0 0 29 30" fill="none" xmlns="http://www.w3.org/2000/svg">
<path d="M24.2228 30C24.3897 30 24.5565 29.944 24.6944 29.8391L27.7272 27.461C27.8796 27.3421 27.9812 27.1672 28.0029 26.9784C28.0247 26.7895 27.9667 26.6007 27.8433 26.4468L20.2105 17.403C21.4512 15.8362 22.2275 13.9687 22.4452 11.9543C22.7572 9.07261 21.8792 6.24685 19.9855 4.00163C16.0748 -0.635685 8.97884 -1.34912 4.16115 2.42089C1.83211 4.24644 0.373739 6.84138 0.0617497 9.72309C-0.25024 12.6048 0.627684 15.4306 2.52139 17.6758C4.41509 19.921 7.10691 21.3269 10.0962 21.6276C10.488 21.6696 10.8871 21.6836 11.2789 21.6836C12.9259 21.6836 14.5366 21.3339 16.0095 20.6694L23.6423 29.7342C23.7875 29.9091 24.0051 30 24.2228 30ZM10.2486 20.1938C7.65833 19.935 5.32204 18.718 3.68228 16.7665C2.04252 14.8151 1.28069 12.367 1.54914 9.86998C1.8176 7.37296 3.08007 5.12075 5.10437 3.54C6.91101 2.12712 9.08768 1.44167 11.2498 1.44167C14.0868 1.44167 16.9092 2.63072 18.8319 4.91091C20.4717 6.86236 21.2335 9.31042 20.965 11.8074C20.6966 14.3045 19.4341 16.5567 17.4098 18.1374C15.3855 19.7252 12.8388 20.4596 10.2486 20.1938ZM18.3458 19.2565C18.6505 19.0187 18.9407 18.7669 19.2164 18.5011L26.2108 26.7965L24.3316 28.2654L17.3373 19.963C17.6783 19.7461 18.0193 19.5153 18.3458 19.2565Z" fill="#F9F4F6"/>
<path d="M17.6489 5.83415C16.2631 4.19046 14.2896 3.16227 12.1056 2.94545C9.91446 2.72862 7.76681 3.34413 6.06175 4.68007C4.35669 6.01601 3.29012 7.9115 3.0652 10.0238C2.84028 12.1361 3.47877 14.1995 4.86458 15.8502C6.48983 17.7807 8.86966 18.7809 11.264 18.7809C13.0851 18.7809 14.9208 18.2003 16.4445 17.0043C19.9707 14.2415 20.5076 9.23345 17.6489 5.83415ZM15.5085 15.8852C12.6208 18.1444 8.36902 17.7177 6.02547 14.9409C4.88635 13.591 4.36395 11.8983 4.55259 10.1707C4.74124 8.44308 5.61191 6.89031 7.00497 5.79918C8.21665 4.84794 9.70405 4.34434 11.2422 4.34434C11.4744 4.34434 11.7138 4.35832 11.946 4.37931C13.7381 4.55417 15.3489 5.4005 16.4807 6.74343C18.8316 9.52722 18.389 13.626 15.5085 15.8852Z" fill="#F9F4F6"/>
</svg>
